<mxfile
  host="Electron" 
  agent="Mozilla/5.0 (Macintosh; Intel Mac OS X 10_15_7) AppleWebKit/537.36 (KHTML, like Gecko) draw.io/25.0.2 Chrome/128.0.6613.186 Electron/32.2.5 Safari/537.36" 
  version="25.0.2"
  >
  <diagram
    name="-"
    >
    <mxGraphModel
      grid="1" 
      gridSize="10" 
      guides="1" 
      tooltips="1" 
      connect="1" 
      arrows="1" 
      fold="1" 
      page="1" 
      pageScale="1" 
      pageWidth="1" 
      pageHeight="1" 
      math="0" 
      shadow="0"
      >
      <root>
        <mxCell
          id="page"
          />
        <mxCell
          id="root" 
          parent="page"
          />
        <mxCell
          style="verticalAlign=top;aspect=fixed;align=center;spacingLeft=5;spacingRight=5;spacingBottom=5;strokeColor=none;" 
          id="shape_" 
          parent="root" 
          value=" " 
          vertex="1"
          >
          <mxGeometry
            as="geometry" 
            width="120" 
            height="120" 
            x="0" 
            y="0"
            />
          </mxCell>
        <mxCell
          style="rounded=1;whiteSpace=wrap;verticalAlign=top;align=center;shape=image;editableCssRules=.*;verticalLabelPosition=bottom;labelBackgroundColor=default;aspect=fixed;imageAspect=0;image=data:image/svg+xml,PHN2ZyB4bWxucz0iaHR0cDovL3d3dy53My5vcmcvMjAwMC9zdmciIHZpZXdCb3g9Ii0wLjUgLTAuNSAyOCAyNy44MzYiIGhlaWdodD0iMjcuODM2IiB3aWR0aD0iMjgiPiYjeGE7CSAgPHN0eWxlIHR5cGU9InRleHQvY3NzIj4mI3hhOwkJLnN0MHtzdG9wLWNvbG9yOiMwMGNlYWM7fSYjeGE7CQkuc3Qxe3N0b3AtY29sb3I6IzA3ODM4Zjt9JiN4YTsJICA8L3N0eWxlPiYjeGE7CTxkZWZzPiYjeGE7CQk8bGluZWFyR3JhZGllbnQgZ3JhZGllbnRVbml0cz0idXNlclNwYWNlT25Vc2UiIHkyPSIyNS4yODMiIHgyPSIyMy4zMjYiIHkxPSIzLjQ1MSIgeDE9IjIuMDM5IiBpZD0iQSI+JiN4YTsJCQk8c3RvcCBjbGFzcz0ic3QwIi8+JiN4YTsJCQk8c3RvcCBjbGFzcz0ic3QxIiBvZmZzZXQ9IjEiLz4mI3hhOwkJPC9saW5lYXJHcmFkaWVudD4mI3hhOwk8L2RlZnM+JiN4YTsJPHBhdGggZmlsbD0idXJsKCNBKSIgZD0iTTIxLjkxMSAxNi4yMTJjLjc2NyAwIDEuNDc5LjE0NiAyLjEzNy40MzhhNS42IDUuNiAwIDAgMSAzLjAxNCAzLjAxNCA1LjIgNS4yIDAgMCAxIC40MzggMi4xMzcgNS41OSA1LjU5IDAgMCAxLS40MzggMi4xOTJjLS4yOTIuNjU3LS42OTQgMS4yMjQtMS4yMDYgMS42OTgtLjUxMi41MTItMS4xMTQuOTEzLTEuODA4IDEuMjA2LS42NTguMjkyLTEuMzcuNDM4LTIuMTM3LjQzOHMtMS40OTgtLjE0Ni0yLjE5Mi0uNDM4YTUuNzggNS43OCAwIDAgMS0xLjc1My0xLjIwNmMtLjUxMi0uNDc1LS45MTMtMS4wNDEtMS4yMDYtMS42OThhNS41OSA1LjU5IDAgMCAxLS40MzgtMi4xOTJ2LS43MTJsLTcuMzk3LTMuNjE2Yy0xLjEzMiAxLjAyMy0yLjQyOSAxLjUzNC0zLjg5IDEuNTM0YTUuNTkgNS41OSAwIDAgMS0yLjE5Mi0uNDM4IDUuNzggNS43OCAwIDAgMS0xLjc1My0xLjIwNmMtLjQ3NS0uNTExLS44NTgtMS4wOTYtMS4xNTEtMS43NTNBNS41OSA1LjU5IDAgMCAxLS41IDEzLjQxOGMwLS43NjcuMTQ2LTEuNDc5LjQzOC0yLjEzNy4yOTItLjY5NC42NzYtMS4yNzkgMS4xNTEtMS43NTNhNS43OCA1Ljc4IDAgMCAxIDEuNzUzLTEuMjA2IDUuNTkgNS41OSAwIDAgMSAyLjE5Mi0uNDM4Yy43NjcgMCAxLjQ3OS4xMjggMi4xMzcuMzg0YTQuNDUgNC40NSAwIDAgMSAxLjc1MyAxLjE1MWw3LjM5Ny0zLjY3MXYtLjY1OGMwLS43NjcuMTQ2LTEuNDc5LjQzOC0yLjEzN2E1LjYgNS42IDAgMCAxIDEuMjA2LTEuODA4IDUuNzggNS43OCAwIDAgMSAxLjc1My0xLjIwNUE1LjU5IDUuNTkgMCAwIDEgMjEuOTExLS41Yy43NjcgMCAxLjQ3OS4xNDYgMi4xMzcuNDM4YTUuNiA1LjYgMCAwIDEgMS44MDggMS4yMDUgNS42IDUuNiAwIDAgMSAxLjIwNiAxLjgwOCA1LjIgNS4yIDAgMCAxIC40MzggMi4xMzcgNS41OSA1LjU5IDAgMCAxLS40MzggMi4xOTIgNS43OCA1Ljc4IDAgMCAxLTEuMjA2IDEuNzUzYy0uNTEyLjQ3NS0xLjExNC44NTgtMS44MDggMS4xNTEtLjY1OC4yOTItMS4zNy40MzgtMi4xMzcuNDM4LS45ODYgMC0xLjg4MS0uMjAxLTIuNjg1LS42MDMtLjc2Ny0uNDM4LTEuNDA2LTEuMDIzLTEuOTE4LTEuNzUzbC02Ljg0OSAzLjUwN2MuMTgzLjYyMS4yNzQgMS4xNjkuMjc0IDEuNjQ0IDAgLjUxMS0uMDkxIDEuMDc4LS4yNzQgMS42OTlsNi44NDkgMy40NTJhNi43NyA2Ljc3IDAgMCAxIDEuOTczLTEuNjk5Yy43NjctLjQzOCAxLjY0NC0uNjU3IDIuNjMtLjY1N3ptMC0xMy45MThhMi42OSAyLjY5IDAgMCAwLTEuOTczLjgyMiAyLjY5IDIuNjkgMCAwIDAtLjgyMiAxLjk3MyAyLjY5IDIuNjkgMCAwIDAgLjgyMiAxLjk3MyAyLjY5IDIuNjkgMCAwIDAgMS45NzMuODIyIDIuNjkgMi42OSAwIDAgMCAxLjk3My0uODIyIDIuNjkgMi42OSAwIDAgMCAuODIyLTEuOTczIDIuNjkgMi42OSAwIDAgMC0uODIyLTEuOTczIDIuNjkgMi42OSAwIDAgMC0xLjk3My0uODIyek01LjE5OSAxNi4yMTJhMi42OSAyLjY5IDAgMCAwIDEuOTczLS44MjIgMi42OSAyLjY5IDAgMCAwIC44MjItMS45NzMgMi42OSAyLjY5IDAgMCAwLS44MjItMS45NzMgMi42OSAyLjY5IDAgMCAwLTEuOTczLS44MjIgMi42OSAyLjY5IDAgMCAwLTEuOTczLjgyMiAyLjY5IDIuNjkgMCAwIDAtLjgyMiAxLjk3MyAyLjY5IDIuNjkgMCAwIDAgLjgyMiAxLjk3MyAyLjY5IDIuNjkgMCAwIDAgMS45NzMuODIyem0xNi43MTIgOC4zODNhMi42OSAyLjY5IDAgMCAwIDEuOTczLS44MjIgMi42OSAyLjY5IDAgMCAwIC44MjItMS45NzMgMi42OSAyLjY5IDAgMCAwLS44MjItMS45NzMgMi42OSAyLjY5IDAgMCAwLTEuOTczLS44MjIgMi42OSAyLjY5IDAgMCAwLTEuOTczLjgyMiAyLjY5IDIuNjkgMCAwIDAtLjgyMiAxLjk3MyAyLjY5IDIuNjkgMCAwIDAgLjgyMiAxLjk3MyAyLjY5IDIuNjkgMCAwIDAgMS45NzMuODIyeiIvPiYjeGE7PC9zdmc+;strokeColor=none;" 
          id="api_highlight_" 
          parent="shape_" 
          value=" " 
          vertex="1"
          >
          <mxGeometry
            as="geometry" 
            width="60" 
            height="60" 
            x="30" 
            y="30"
            />
          </mxCell>
        </root>
      </mxGraphModel>
    </diagram>
  </mxfile>